<?xml version="1.0" standalone="no"?>
<!DOCTYPE svg PUBLIC "-//W3C//DTD SVG 20010904//EN"
 "http://www.w3.org/TR/2001/REC-SVG-20010904/DTD/svg10.dtd">
<svg version="1.0" xmlns="http://www.w3.org/2000/svg"
 width="1000.000000pt" height="1000.000000pt" viewBox="0 0 1000.000000 1000.000000"
 preserveAspectRatio="xMidYMid meet">
<metadata>
Created by potrace 1.14, written by Peter Selinger 2001-2017
</metadata>
<g transform="translate(0.000000,1000.000000) scale(0.100000,-0.100000)"
fill="#000000" stroke="none">
<path d="M0 5000 l0 -5000 5000 0 5000 0 0 5000 0 5000 -5000 0 -5000 0 0
-5000z m3830 1745 l0 -335 -870 0 -870 0 0 -540 0 -540 665 0 665 0 0 -325 0
-325 -665 0 -665 0 0 -885 0 -885 -415 0 -415 0 0 2085 0 2085 1285 0 1285 0
0 -335z m1984 -1205 c363 -847 662 -1540 666 -1540 4 0 303 693 666 1540 l658
1540 473 0 473 0 0 -2085 0 -2085 -420 0 -420 0 -2 1344 -3 1343 -539 -1311
c-297 -721 -546 -1326 -555 -1343 l-15 -33 -317 0 -317 0 -39 92 c-21 51 -273
658 -558 1348 l-520 1256 -3 -1348 -2 -1348 -420 0 -420 0 0 2085 0 2085 478
0 477 0 659 -1540z"/>
</g>
</svg>
